<svg width="132" height="132" viewBox="0 0 132 132" fill="none" xmlns="http://www.w3.org/2000/svg">
<path d="M102.763 56.0789C100.916 49.7103 97.5558 43.883 92.9688 39.0944C88.3818 34.3058 82.7044 30.698 76.4211 28.5789C70.2134 26.772 63.6886 26.328 57.2934 27.2773C50.8981 28.2266 44.7836 30.5467 39.3685 34.0789C38.9229 34.5254 38.3641 34.8422 37.7521 34.9952C37.1401 35.1482 36.4981 35.1316 35.8948 34.9473C34.6785 34.5533 33.5826 33.8559 32.7106 32.921C32.0757 31.7756 31.8704 30.4412 32.1316 29.1579C32.2975 28.5419 32.5888 27.9668 32.9873 27.4687C33.3858 26.9706 33.8829 26.5601 34.4474 26.2631C49.7895 17.2894 64.8421 14.9736 79.3158 19.6052C86.4415 21.9754 92.9471 25.9088 98.3564 31.1178C103.766 36.3267 107.942 42.6793 110.579 49.7105H129.974C126.008 34.0672 116.448 20.4191 103.102 11.3466C89.7553 2.27398 73.5473 -1.59426 57.5422 0.47322C41.5371 2.5407 26.8441 10.4006 16.2412 22.5668C5.63839 34.7331 -0.139492 50.3625 2.75509e-05 66.5C2.75509e-05 69.1052 0.289501 71.421 0.289501 74.0263H24.8948C25.8345 73.973 26.7661 74.2265 27.5492 74.7486C28.3323 75.2707 28.9246 76.0331 29.2369 76.921C31.1275 83.2677 34.5031 89.0726 39.0841 93.8549C43.665 98.6372 49.3194 102.259 55.579 104.421C61.7866 106.228 68.3115 106.672 74.7067 105.723C81.1019 104.773 87.2165 102.453 92.6316 98.921C93.0772 98.4745 93.636 98.1577 94.2479 98.0047C94.8599 97.8517 95.502 97.8683 96.1053 98.0526C97.3216 98.4466 98.4174 99.144 99.2895 100.079C99.9244 101.224 100.13 102.559 99.8685 103.842C99.7026 104.458 99.4113 105.033 99.0128 105.531C98.6143 106.029 98.1172 106.44 97.5527 106.737C88.8269 112.608 78.5435 115.733 68.0263 115.71C62.8283 115.671 57.6623 114.892 52.6842 113.395C45.5286 111.081 38.9943 107.168 33.5772 101.951C28.1602 96.7348 24.0029 90.3527 21.4211 83.2894H2.31582C6.50061 98.6754 16.1139 112.026 29.3788 120.874C42.6437 129.722 58.6631 133.468 74.4761 131.421C90.2891 129.374 104.826 121.671 115.401 109.737C125.975 97.8032 131.871 82.4444 132 66.5C132.054 64.084 131.957 61.667 131.711 59.2631H107.395C106.408 59.1979 105.457 58.8677 104.642 58.3073C103.826 57.7469 103.178 56.9771 102.763 56.0789Z" fill="#100A42"/>
</svg>
